<svg xmlns="http://www.w3.org/2000/svg" width="1920" height="1080"><path d="M232,-394L527,-369L891,-378Z" fill="#ffcbd1" stroke="#ffcbd1" stroke-width="1.51"/><path d="M232,-394L891,-378L1268,-428Z" fill="#ffbbcb" stroke="#ffbbcb" stroke-width="1.51"/><path d="M1157,1420L455,1502L1884,1496Z" fill="#9f2685" stroke="#9f2685" stroke-width="1.51"/><path d="M1390,1390L1157,1420L1884,1496Z" fill="#920e7d" stroke="#920e7d" stroke-width="1.51"/><path d="M1268,-428L1751,-361L2176,-318Z" fill="#d489b2" stroke="#d489b2" stroke-width="1.51"/><path d="M1751,-361L1902,-280L2176,-318Z" fill="#c281af" stroke="#c281af" stroke-width="1.51"/><path d="M2199,683L2004,855L2236,939Z" fill="#9d1782" stroke="#9d1782" stroke-width="1.51"/><path d="M2176,-318L2186,-130L2236,488Z" fill="#ad6a99" stroke="#ad6a99" stroke-width="1.51"/><path d="M2186,-130L2118,194L2236,488Z" fill="#ad5d95" stroke="#ad5d95" stroke-width="1.51"/><path d="M2199,683L2236,939L2236,488Z" fill="#9f2585" stroke="#9f2585" stroke-width="1.51"/><path d="M2236,939L1979,1153L2291,1156Z" fill="#830077" stroke="#830077" stroke-width="1.51"/><path d="M1979,1153L2226,1432L2291,1156Z" fill="#730074" stroke="#730074" stroke-width="1.51"/><path d="M2236,488L2236,939L2291,1156Z" fill="#92127f" stroke="#92127f" stroke-width="1.51"/><path d="M2046,-146L1948,140L2118,194Z" fill="#b96b9a" stroke="#b96b9a" stroke-width="1.51"/><path d="M2046,-146L2118,194L2186,-130Z" fill="#b36e9d" stroke="#b36e9d" stroke-width="1.51"/><path d="M1979,1153L1884,1496L2226,1432Z" fill="#710074" stroke="#710074" stroke-width="1.51"/><path d="M2004,855L1979,1153L2236,939Z" fill="#94067c" stroke="#94067c" stroke-width="1.51"/><path d="M2118,194L1894,462L2236,488Z" fill="#b24d91" stroke="#b24d91" stroke-width="1.51"/><path d="M1900,597L2199,683L2236,488Z" fill="#ad3389" stroke="#ad3389" stroke-width="1.51"/><path d="M1894,462L1900,597L2236,488Z" fill="#b63d8d" stroke="#b63d8d" stroke-width="1.51"/><path d="M2176,-318L2046,-146L2186,-130Z" fill="#b277a7" stroke="#b277a7" stroke-width="1.51"/><path d="M1900,597L2004,855L2199,683Z" fill="#ac2688" stroke="#ac2688" stroke-width="1.51"/><path d="M1902,-280L2046,-146L2176,-318Z" fill="#b97baa" stroke="#b97baa" stroke-width="1.51"/><path d="M941,1400L455,1502L1157,1420Z" fill="#aa418b" stroke="#aa418b" stroke-width="1.51"/><path d="M1948,140L1894,462L2118,194Z" fill="#ba5b97" stroke="#ba5b97" stroke-width="1.51"/><path d="M1761,865L1714,1072L1979,1153Z" fill="#a2027d" stroke="#a2027d" stroke-width="1.51"/><path d="M1757,1396L1884,1496L1979,1153Z" fill="#7e0077" stroke="#7e0077" stroke-width="1.51"/><path d="M1761,865L1979,1153L2004,855Z" fill="#a10c80" stroke="#a10c80" stroke-width="1.51"/><path d="M1733,-101L1948,140L2046,-146Z" fill="#c373a1" stroke="#c373a1" stroke-width="1.51"/><path d="M1902,-280L1733,-101L2046,-146Z" fill="#c57ba9" stroke="#c57ba9" stroke-width="1.51"/><path d="M1708,322L1894,462L1948,140Z" fill="#c55a97" stroke="#c55a97" stroke-width="1.51"/><path d="M1900,597L1761,865L2004,855Z" fill="#b42088" stroke="#b42088" stroke-width="1.51"/><path d="M1757,1396L1390,1390L1884,1496Z" fill="#850077" stroke="#850077" stroke-width="1.51"/><path d="M1714,1072L1757,1396L1979,1153Z" fill="#90017a" stroke="#90017a" stroke-width="1.51"/><path d="M1661,623L1761,865L1900,597Z" fill="#c12c8b" stroke="#c12c8b" stroke-width="1.51"/><path d="M1733,-101L1674,140L1948,140Z" fill="#cc719d" stroke="#cc719d" stroke-width="1.51"/><path d="M1674,140L1708,322L1948,140Z" fill="#cc659a" stroke="#cc659a" stroke-width="1.51"/><path d="M1894,462L1661,623L1900,597Z" fill="#c43b8e" stroke="#c43b8e" stroke-width="1.51"/><path d="M1751,-361L1733,-101L1902,-280Z" fill="#ce81ad" stroke="#ce81ad" stroke-width="1.51"/><path d="M1708,322L1661,623L1894,462Z" fill="#cb4892" stroke="#cb4892" stroke-width="1.51"/><path d="M1469,485L1661,623L1708,322Z" fill="#d64b94" stroke="#d64b94" stroke-width="1.51"/><path d="M1268,-428L1538,-276L1751,-361Z" fill="#e390b8" stroke="#e390b8" stroke-width="1.51"/><path d="M1538,-276L1733,-101L1751,-361Z" fill="#d784ae" stroke="#d784ae" stroke-width="1.51"/><path d="M1714,1072L1404,1108L1757,1396Z" fill="#a0037d" stroke="#a0037d" stroke-width="1.51"/><path d="M1404,1108L1390,1390L1757,1396Z" fill="#9c0d7f" stroke="#9c0d7f" stroke-width="1.51"/><path d="M1661,623L1524,701L1761,865Z" fill="#c8298b" stroke="#c8298b" stroke-width="1.51"/><path d="M1462,928L1714,1072L1761,865Z" fill="#b60e82" stroke="#b60e82" stroke-width="1.51"/><path d="M1524,701L1462,928L1761,865Z" fill="#c6218b" stroke="#c6218b" stroke-width="1.51"/><path d="M1475,-151L1674,140L1733,-101Z" fill="#da7ba4" stroke="#da7ba4" stroke-width="1.51"/><path d="M1538,-276L1475,-151L1733,-101Z" fill="#de84ad" stroke="#de84ad" stroke-width="1.51"/><path d="M1475,-151L1421,155L1674,140Z" fill="#e07aa4" stroke="#e07aa4" stroke-width="1.51"/><path d="M1674,140L1421,155L1708,322Z" fill="#d96a9d" stroke="#d96a9d" stroke-width="1.51"/><path d="M1462,928L1404,1108L1714,1072Z" fill="#b60f82" stroke="#b60f82" stroke-width="1.51"/><path d="M1421,155L1469,485L1708,322Z" fill="#dd629c" stroke="#dd629c" stroke-width="1.51"/><path d="M1469,485L1524,701L1661,623Z" fill="#d63e92" stroke="#d63e92" stroke-width="1.51"/><path d="M1284,1233L1390,1390L1404,1108Z" fill="#ac1985" stroke="#ac1985" stroke-width="1.51"/><path d="M1421,155L1252,353L1469,485Z" fill="#e768a2" stroke="#e768a2" stroke-width="1.51"/><path d="M1270,-100L1421,155L1475,-151Z" fill="#ea85ad" stroke="#ea85ad" stroke-width="1.51"/><path d="M1469,485L1292,628L1524,701Z" fill="#de4496" stroke="#de4496" stroke-width="1.51"/><path d="M1292,628L1462,928L1524,701Z" fill="#d63293" stroke="#d63293" stroke-width="1.51"/><path d="M1268,-428L1475,-151L1538,-276Z" fill="#ea91b8" stroke="#ea91b8" stroke-width="1.51"/><path d="M1292,628L1258,943L1462,928Z" fill="#d62f94" stroke="#d62f94" stroke-width="1.51"/><path d="M1258,943L1404,1108L1462,928Z" fill="#c51f8a" stroke="#c51f8a" stroke-width="1.51"/><path d="M1268,-428L1270,-100L1475,-151Z" fill="#ef93b9" stroke="#ef93b9" stroke-width="1.51"/><path d="M1252,353L1292,628L1469,485Z" fill="#e8559d" stroke="#e8559d" stroke-width="1.51"/><path d="M1270,-100L1150,192L1421,155Z" fill="#f083ab" stroke="#f083ab" stroke-width="1.51"/><path d="M1150,192L1252,353L1421,155Z" fill="#ee76a8" stroke="#ee76a8" stroke-width="1.51"/><path d="M1258,943L1284,1233L1404,1108Z" fill="#bf1f89" stroke="#bf1f89" stroke-width="1.51"/><path d="M1284,1233L1157,1420L1390,1390Z" fill="#a61e86" stroke="#a61e86" stroke-width="1.51"/><path d="M962,758L1049,994L1258,943Z" fill="#da3f95" stroke="#da3f95" stroke-width="1.51"/><path d="M891,-378L973,-141L1268,-428Z" fill="#fca8c2" stroke="#fca8c2" stroke-width="1.51"/><path d="M1268,-428L973,-141L1270,-100Z" fill="#f69bbc" stroke="#f69bbc" stroke-width="1.51"/><path d="M973,-141L1150,192L1270,-100Z" fill="#f592b1" stroke="#f592b1" stroke-width="1.51"/><path d="M1258,943L1049,994L1284,1233Z" fill="#c82b8c" stroke="#c82b8c" stroke-width="1.51"/><path d="M1252,353L935,464L1292,628Z" fill="#f062a1" stroke="#f062a1" stroke-width="1.51"/><path d="M935,464L962,758L1292,628Z" fill="#ef5a9e" stroke="#ef5a9e" stroke-width="1.51"/><path d="M962,758L1258,943L1292,628Z" fill="#e3419a" stroke="#e3419a" stroke-width="1.51"/><path d="M916,1099L1157,1420L1284,1233Z" fill="#b62f8a" stroke="#b62f8a" stroke-width="1.51"/><path d="M1049,994L916,1099L1284,1233Z" fill="#c7358d" stroke="#c7358d" stroke-width="1.51"/><path d="M916,1099L941,1400L1157,1420Z" fill="#b5378b" stroke="#b5378b" stroke-width="1.51"/><path d="M1150,192L935,464L1252,353Z" fill="#f476a7" stroke="#f476a7" stroke-width="1.51"/><path d="M527,-369L736,-344L891,-378Z" fill="#fec0cc" stroke="#fec0cc" stroke-width="1.51"/><path d="M973,-141L871,207L1150,192Z" fill="#f993af" stroke="#f993af" stroke-width="1.51"/><path d="M871,207L935,464L1150,192Z" fill="#f883aa" stroke="#f883aa" stroke-width="1.51"/><path d="M-90,1389L-214,1401L455,1502Z" fill="#af71a1" stroke="#af71a1" stroke-width="1.51"/><path d="M716,1344L455,1502L941,1400Z" fill="#ad4e90" stroke="#ad4e90" stroke-width="1.51"/><path d="M962,758L736,888L1049,994Z" fill="#e24f99" stroke="#e24f99" stroke-width="1.51"/><path d="M736,888L916,1099L1049,994Z" fill="#d74994" stroke="#d74994" stroke-width="1.51"/><path d="M669,-167L646,182L871,207Z" fill="#fba7b6" stroke="#fba7b6" stroke-width="1.51"/><path d="M630,491L646,750L935,464Z" fill="#f779a7" stroke="#f779a7" stroke-width="1.51"/><path d="M916,1099L732,1256L941,1400Z" fill="#bc4590" stroke="#bc4590" stroke-width="1.51"/><path d="M935,464L646,750L962,758Z" fill="#f267a2" stroke="#f267a2" stroke-width="1.51"/><path d="M669,-167L871,207L973,-141Z" fill="#fca6b8" stroke="#fca6b8" stroke-width="1.51"/><path d="M891,-378L736,-344L973,-141Z" fill="#feb1c5" stroke="#feb1c5" stroke-width="1.51"/><path d="M736,-344L669,-167L973,-141Z" fill="#fdb4c4" stroke="#fdb4c4" stroke-width="1.51"/><path d="M732,1256L716,1344L941,1400Z" fill="#b54890" stroke="#b54890" stroke-width="1.51"/><path d="M646,750L736,888L962,758Z" fill="#ea61a1" stroke="#ea61a1" stroke-width="1.51"/><path d="M871,207L630,491L935,464Z" fill="#f986ab" stroke="#f986ab" stroke-width="1.51"/><path d="M646,182L630,491L871,207Z" fill="#fa97b2" stroke="#fa97b2" stroke-width="1.51"/><path d="M736,888L732,1256L916,1099Z" fill="#d05094" stroke="#d05094" stroke-width="1.51"/><path d="M530,477L630,491L646,182Z" fill="#fa97b1" stroke="#fa97b1" stroke-width="1.51"/><path d="M524,-122L646,182L669,-167Z" fill="#fcb6bf" stroke="#fcb6bf" stroke-width="1.51"/><path d="M465,924L463,1220L732,1256Z" fill="#cc6299" stroke="#cc6299" stroke-width="1.51"/><path d="M465,924L732,1256L736,888Z" fill="#d65f99" stroke="#d65f99" stroke-width="1.51"/><path d="M646,750L465,924L736,888Z" fill="#e76ca3" stroke="#e76ca3" stroke-width="1.51"/><path d="M527,-369L669,-167L736,-344Z" fill="#fec2cb" stroke="#fec2cb" stroke-width="1.51"/><path d="M463,1220L716,1344L732,1256Z" fill="#bc5896" stroke="#bc5896" stroke-width="1.51"/><path d="M524,-122L414,106L646,182Z" fill="#fcb6bc" stroke="#fcb6bc" stroke-width="1.51"/><path d="M463,1220L455,1502L716,1344Z" fill="#b45b96" stroke="#b45b96" stroke-width="1.51"/><path d="M630,491L530,477L646,750Z" fill="#f883aa" stroke="#f883aa" stroke-width="1.51"/><path d="M530,477L393,745L646,750Z" fill="#f481aa" stroke="#f481aa" stroke-width="1.51"/><path d="M414,106L530,477L646,182Z" fill="#fba7b8" stroke="#fba7b8" stroke-width="1.51"/><path d="M527,-369L524,-122L669,-167Z" fill="#fdc3ca" stroke="#fdc3ca" stroke-width="1.51"/><path d="M393,745L465,924L646,750Z" fill="#ec76a7" stroke="#ec76a7" stroke-width="1.51"/><path d="M229,1353L-90,1389L455,1502Z" fill="#b06c9c" stroke="#b06c9c" stroke-width="1.51"/><path d="M229,1353L455,1502L463,1220Z" fill="#b56598" stroke="#b56598" stroke-width="1.51"/><path d="M271,1129L463,1220L465,924Z" fill="#d16c9d" stroke="#d16c9d" stroke-width="1.51"/><path d="M204,-75L414,106L524,-122Z" fill="#fdc3c2" stroke="#fdc3c2" stroke-width="1.51"/><path d="M232,-394L204,-75L524,-122Z" fill="#fdd0cc" stroke="#fdd0cc" stroke-width="1.51"/><path d="M232,-394L524,-122L527,-369Z" fill="#fdcecf" stroke="#fdcecf" stroke-width="1.51"/><path d="M247,669L393,745L530,477Z" fill="#f68bad" stroke="#f68bad" stroke-width="1.51"/><path d="M414,106L142,364L530,477Z" fill="#fbabb8" stroke="#fbabb8" stroke-width="1.51"/><path d="M142,364L247,669L530,477Z" fill="#fb9bb1" stroke="#fb9bb1" stroke-width="1.51"/><path d="M271,1129L229,1353L463,1220Z" fill="#c26c9c" stroke="#c26c9c" stroke-width="1.51"/><path d="M393,745L265,826L465,924Z" fill="#ea7ca8" stroke="#ea7ca8" stroke-width="1.51"/><path d="M265,826L271,1129L465,924Z" fill="#df76a2" stroke="#df76a2" stroke-width="1.51"/><path d="M127,103L142,364L414,106Z" fill="#fcbcbe" stroke="#fcbcbe" stroke-width="1.51"/><path d="M204,-75L127,103L414,106Z" fill="#fcc6c1" stroke="#fcc6c1" stroke-width="1.51"/><path d="M247,669L265,826L393,745Z" fill="#f187ac" stroke="#f187ac" stroke-width="1.51"/><path d="M127,103L48,221L142,364Z" fill="#fcbdc3" stroke="#fcbdc3" stroke-width="1.51"/><path d="M-201,-358L31,-275L232,-394Z" fill="#fee2df" stroke="#fee2df" stroke-width="1.51"/><path d="M31,-275L204,-75L232,-394Z" fill="#fdd9d5" stroke="#fdd9d5" stroke-width="1.51"/><path d="M142,364L45,426L247,669Z" fill="#fca4b8" stroke="#fca4b8" stroke-width="1.51"/><path d="M247,669L1,845L265,826Z" fill="#f08ab0" stroke="#f08ab0" stroke-width="1.51"/><path d="M-45,1075L229,1353L271,1129Z" fill="#c875a2" stroke="#c875a2" stroke-width="1.51"/><path d="M265,826L1,845L271,1129Z" fill="#e280a8" stroke="#e280a8" stroke-width="1.51"/><path d="M1,845L-45,1075L271,1129Z" fill="#db7fa8" stroke="#db7fa8" stroke-width="1.51"/><path d="M-45,1075L-90,1389L229,1353Z" fill="#bf78a6" stroke="#bf78a6" stroke-width="1.51"/><path d="M45,426L-86,687L247,669Z" fill="#fa9db8" stroke="#fa9db8" stroke-width="1.51"/><path d="M-86,687L1,845L247,669Z" fill="#f393b5" stroke="#f393b5" stroke-width="1.51"/><path d="M-47,5L127,103L204,-75Z" fill="#fdcec9" stroke="#fdcec9" stroke-width="1.51"/><path d="M31,-275L-47,5L204,-75Z" fill="#fdd6d2" stroke="#fdd6d2" stroke-width="1.51"/><path d="M48,221L45,426L142,364Z" fill="#fcb5c0" stroke="#fcb5c0" stroke-width="1.51"/><path d="M-47,5L48,221L127,103Z" fill="#fdc9c8" stroke="#fdc9c8" stroke-width="1.51"/><path d="M-201,-358L-295,-45L-47,5Z" fill="#fedfdc" stroke="#fedfdc" stroke-width="1.51"/><path d="M-201,-358L-47,5L31,-275Z" fill="#fde0dd" stroke="#fde0dd" stroke-width="1.51"/><path d="M-375,382L-86,687L45,426Z" fill="#feaec2" stroke="#feaec2" stroke-width="1.51"/><path d="M-47,5L-380,161L48,221Z" fill="#fdcece" stroke="#fdcece" stroke-width="1.51"/><path d="M-375,382L45,426L48,221Z" fill="#fdbcc7" stroke="#fdbcc7" stroke-width="1.51"/><path d="M-380,161L-375,382L48,221Z" fill="#fdc8cf" stroke="#fdc8cf" stroke-width="1.51"/><path d="M-354,1221L-214,1401L-90,1389Z" fill="#b97ead" stroke="#b97ead" stroke-width="1.51"/><path d="M-354,1221L-90,1389L-45,1075Z" fill="#c580ad" stroke="#c580ad" stroke-width="1.51"/><path d="M-86,687L-255,742L1,845Z" fill="#f397bc" stroke="#f397bc" stroke-width="1.51"/><path d="M-255,742L-296,914L1,845Z" fill="#ee94bb" stroke="#ee94bb" stroke-width="1.51"/><path d="M-296,914L-45,1075L1,845Z" fill="#e38bb3" stroke="#e38bb3" stroke-width="1.51"/><path d="M-375,382L-255,742L-86,687Z" fill="#fba8c3" stroke="#fba8c3" stroke-width="1.51"/><path d="M-295,-45L-380,161L-47,5Z" fill="#fed8d4" stroke="#fed8d4" stroke-width="1.51"/><path d="M-296,914L-354,1221L-45,1075Z" fill="#d788b1" stroke="#d788b1" stroke-width="1.51"/><path d="M-380,161L-295,-45L-201,-358Z" fill="#fee0dc" stroke="#fee0dc" stroke-width="1.51"/><path d="M-375,382L-296,914L-255,742Z" fill="#f9a4c3" stroke="#f9a4c3" stroke-width="1.51"/><path d="M-375,382L-354,1221L-296,914Z" fill="#ef99bf" stroke="#ef99bf" stroke-width="1.51"/></svg>